# xmcd
#
# Track frame offsets:
#	183
#	12580
#	29900
#	42658
#	55943
#	69400
#	81750
#	95373
#	108805
#	122695
#	136410
#	151638
#	162958
#	176788
#	190715
#	207495
#	221310
#	234878
#	249983
#	264743
#	278240
#	291513
#	303958
#	317618
#
# Disc length: 4645 seconds
#
# Revision: 0
# Processed by: cddbd v1.5.1PL0 Copyright (c) Steve Scherf et al.
# Submitted via: dBpowerAMP V4.0
#
DISCID=57122318
DTITLE=John Lee Hookers - the EP collection
DYEAR=1900
DGENRE=Blues
TTITLE0=Mad Man Blues
TTITLE1=You know, I know
TTITLE2=Leave my Wife alone
TTITLE3=Down at the Landing
TTITLE4=Ground Hog Blues
TTITLE5=High Priced Woman
TTITLE6=Love blues
TTITLE7=Union Station Blues
TTITLE8=Louise
TTITLE9=One Bourbon, One scotch and a Beer
TTITLE10=Just Me and my Telephone
TTITLE11=Babe, Please dont go
TTITLE12=Apologize
TTITLE13=Worried Life Blues
TTITLE14=the Journey
TTITLE15=I don't want your Money
TTITLE16=Lonely Boy Boogie
TTITLE17=Rambling by Myself
TTITLE18=Sugar Mama
TTITLE19=It's my own Fault
TTITLE20=Women and Money
TTITLE21=Walking the Boogie
TTITLE22=Stella Mae
TTITLE23=Let's go out Tonight
EXTD=MCA Records Ltd. Compilation copyriht 1994 See for Miles Redords Ltd\nA Colin Miles compilation.\nSubmitted by www.schaduwen.nl
EXTT0=
EXTT1=
EXTT2=
EXTT3=
EXTT4=
EXTT5=
EXTT6=
EXTT7=
EXTT8=
EXTT9=
EXTT10=
EXTT11=
EXTT12=
EXTT13=
EXTT14=
EXTT15=
EXTT16=
EXTT17=
EXTT18=
EXTT19=
EXTT20=
EXTT21=
EXTT22=
EXTT23=
PLAYORDER=
